<svg width="26" height="26" viewBox="0 0 26 26" fill="none" xmlns="http://www.w3.org/2000/svg">
<g id="phone-flip">
<path id="Union" fill-rule="evenodd" clip-rule="evenodd" d="M17.875 1.625H8.125C7.22754 1.625 6.5 2.35254 6.5 3.25V13C6.5 13.4487 6.13623 13.8125 5.6875 13.8125C5.23877 13.8125 4.875 13.4487 4.875 13V3.25C4.875 1.45507 6.33007 0 8.125 0H17.875C19.6699 0 21.125 1.45507 21.125 3.25V13C21.125 13.4487 20.7612 13.8125 20.3125 13.8125C19.8638 13.8125 19.5 13.4487 19.5 13V3.25C19.5 2.35254 18.7725 1.625 17.875 1.625ZM19.5 22.75C19.5 23.6475 18.7725 24.375 17.875 24.375H8.125C7.22754 24.375 6.5 23.6475 6.5 22.75V19.5C6.5 19.0513 6.13623 18.6875 5.6875 18.6875C5.23877 18.6875 4.875 19.0513 4.875 19.5V22.75C4.875 24.5449 6.33007 26 8.125 26H17.875C19.6699 26 21.125 24.5449 21.125 22.75V19.5C21.125 19.0513 20.7612 18.6875 20.3125 18.6875C19.8638 18.6875 19.5 19.0513 19.5 19.5V22.75ZM2.65229 12.6416C2.90307 12.526 3.01265 12.229 2.89705 11.9782C2.78144 11.7274 2.48443 11.6178 2.23365 11.7334C1.68738 11.9852 1.22339 12.2723 0.888864 12.6002C0.553213 12.9292 0.3125 13.3367 0.3125 13.8125C0.3125 14.5314 0.8513 15.0893 1.50359 15.5005C2.1809 15.9275 3.12776 16.2936 4.2533 16.5937C6.51172 17.196 9.60394 17.5625 13 17.5625C13.4209 17.5625 13.8369 17.5569 14.247 17.5459L11.8339 19.9589C11.6387 20.1542 11.6387 20.4708 11.8339 20.6661C12.0292 20.8613 12.3458 20.8613 12.5411 20.6661L15.7911 17.4161C15.9863 17.2208 15.9863 16.9042 15.7911 16.7089L12.5411 13.4589C12.3458 13.2637 12.0292 13.2637 11.8339 13.4589C11.6387 13.6542 11.6387 13.9708 11.8339 14.1661L14.2143 16.5464C13.815 16.557 13.4099 16.5625 13 16.5625C9.66509 16.5625 6.66356 16.2015 4.51097 15.6275C3.43101 15.3395 2.59305 15.0052 2.03692 14.6546C1.45577 14.2882 1.3125 13.991 1.3125 13.8125C1.3125 13.6964 1.36854 13.5303 1.58888 13.3143C1.81034 13.0972 2.16158 12.8678 2.65229 12.6416ZM23.7664 11.7334C23.5156 11.6178 23.2186 11.7274 23.103 11.9782C22.9873 12.229 23.0969 12.526 23.3477 12.6416C23.8384 12.8678 24.1897 13.0972 24.4111 13.3143C24.6315 13.5303 24.6875 13.6964 24.6875 13.8125C24.6875 13.9346 24.625 14.1129 24.3753 14.3449C24.1256 14.5767 23.7322 14.819 23.1883 15.0546C22.1039 15.5245 20.5279 15.9233 18.6177 16.1925C18.3443 16.2311 18.1539 16.484 18.1924 16.7574C18.2309 17.0309 18.4839 17.2213 18.7573 17.1828C20.7128 16.9071 22.3868 16.4918 23.5859 15.9722C24.1839 15.7131 24.6907 15.4166 25.0557 15.0776C25.4207 14.7387 25.6875 14.314 25.6875 13.8125C25.6875 13.3367 25.4468 12.9292 25.1111 12.6002C24.7766 12.2723 24.3126 11.9852 23.7664 11.7334ZM12.1875 3.5625C11.9114 3.5625 11.6875 3.78636 11.6875 4.0625C11.6875 4.33864 11.9114 4.5625 12.1875 4.5625H13.8125C14.0886 4.5625 14.3125 4.33864 14.3125 4.0625C14.3125 3.78636 14.0886 3.5625 13.8125 3.5625H12.1875Z" fill="black"/>
</g>
</svg>
